<?xml version="1.0" encoding="UTF-8"?>
<svg version="1.1" xmlns="http://www.w3.org/2000/svg" width="707" height="353">
<path d="M0,0 L1,0 L1,1 L2,1 L2,0 L33,0 L33,1 L37,1 L37,2 L44,2 L44,3 L46,3 L46,4 L50,4 L50,5 L52,5 L52,6 L55,6 L55,7 L58,7 L58,8 L60,8 L60,9 L62,9 L62,10 L65,10 L65,11 L66,11 L66,12 L68,12 L68,13 L70,13 L70,14 L72,14 L72,15 L73,15 L73,16 L75,16 L75,17 L77,17 L77,18 L78,18 L78,19 L80,19 L80,20 L81,20 L81,21 L82,21 L82,22 L84,22 L84,23 L85,23 L85,24 L86,24 L86,25 L87,25 L87,26 L88,26 L88,27 L89,27 L89,28 L90,28 L90,29 L92,29 L92,30 L93,30 L93,32 L94,32 L94,33 L95,33 L95,34 L96,34 L96,35 L97,35 L97,36 L98,36 L98,37 L99,37 L99,38 L100,38 L100,39 L101,39 L101,40 L102,40 L102,42 L103,42 L103,43 L104,43 L104,44 L105,44 L105,46 L106,46 L106,47 L107,47 L107,49 L108,49 L108,51 L109,51 L109,52 L110,52 L110,54 L111,54 L111,56 L112,56 L112,58 L113,58 L113,59 L114,59 L114,61 L115,61 L115,64 L116,64 L116,66 L117,66 L117,69 L118,69 L118,71 L119,71 L119,74 L120,74 L120,77 L121,77 L121,81 L122,81 L122,86 L123,86 L123,91 L124,91 L124,101 L125,101 L125,113 L124,113 L124,124 L123,124 L123,129 L122,129 L122,133 L121,133 L121,137 L120,137 L120,140 L119,140 L119,143 L118,143 L118,146 L117,146 L117,148 L116,148 L116,151 L115,151 L115,153 L114,153 L114,155 L113,155 L113,157 L112,157 L112,159 L111,159 L111,160 L110,160 L110,162 L109,162 L109,164 L108,164 L108,166 L107,166 L107,167 L106,167 L106,169 L105,169 L105,170 L104,170 L104,171 L103,171 L103,173 L102,173 L102,174 L101,174 L101,175 L100,175 L100,176 L99,176 L99,177 L98,177 L98,179 L97,179 L97,180 L96,180 L96,181 L95,181 L95,182 L94,182 L94,183 L93,183 L93,184 L92,184 L92,185 L91,185 L91,186 L90,186 L90,187 L89,187 L89,188 L88,188 L88,189 L86,189 L86,190 L85,190 L85,191 L84,191 L84,192 L83,192 L83,193 L81,193 L81,194 L80,194 L80,195 L79,195 L79,196 L77,196 L77,197 L76,197 L76,198 L74,198 L74,199 L72,199 L72,200 L71,200 L71,201 L69,201 L69,202 L67,202 L67,203 L65,203 L65,204 L63,204 L63,205 L61,205 L61,206 L59,206 L59,207 L56,207 L56,208 L53,208 L53,209 L51,209 L51,210 L47,210 L47,211 L44,211 L44,212 L39,212 L39,213 L34,213 L34,214 L26,214 L26,215 L7,215 L7,214 L0,214 L0,213 L-6,213 L-6,212 L-10,212 L-10,211 L-14,211 L-14,210 L-17,210 L-17,209 L-20,209 L-20,208 L-22,208 L-22,207 L-25,207 L-25,206 L-27,206 L-27,205 L-29,205 L-29,204 L-31,204 L-31,203 L-33,203 L-33,202 L-35,202 L-35,201 L-37,201 L-37,200 L-39,200 L-39,199 L-40,199 L-40,198 L-42,198 L-42,197 L-43,197 L-43,196 L-45,196 L-45,195 L-46,195 L-46,194 L-48,194 L-48,193 L-49,193 L-49,192 L-50,192 L-50,191 L-51,191 L-51,190 L-53,190 L-53,189 L-54,189 L-54,188 L-55,188 L-55,187 L-56,187 L-56,186 L-57,186 L-57,185 L-58,185 L-58,184 L-59,184 L-59,183 L-60,183 L-60,182 L-61,182 L-61,181 L-62,181 L-62,180 L-63,180 L-63,179 L-64,179 L-64,178 L-65,178 L-65,177 L-66,177 L-66,175 L-67,175 L-67,174 L-68,174 L-68,173 L-69,173 L-69,172 L-70,172 L-70,170 L-71,170 L-71,169 L-72,169 L-72,167 L-73,167 L-73,166 L-74,166 L-74,164 L-75,164 L-75,163 L-76,163 L-76,161 L-77,161 L-77,159 L-78,159 L-78,157 L-79,157 L-79,156 L-80,156 L-80,153 L-81,153 L-81,151 L-82,151 L-82,149 L-83,149 L-83,147 L-84,147 L-84,144 L-85,144 L-85,141 L-86,141 L-86,138 L-87,138 L-87,135 L-88,135 L-88,130 L-89,130 L-89,126 L-90,126 L-90,113 L-91,113 L-91,101 L-90,101 L-90,89 L-89,89 L-89,84 L-88,84 L-88,80 L-87,80 L-87,77 L-86,77 L-86,73 L-85,73 L-85,71 L-84,71 L-84,68 L-83,68 L-83,65 L-82,65 L-82,63 L-81,63 L-81,61 L-80,61 L-80,59 L-79,59 L-79,57 L-78,57 L-78,55 L-77,55 L-77,53 L-76,53 L-76,52 L-75,52 L-75,50 L-74,50 L-74,48 L-73,48 L-73,47 L-72,47 L-72,45 L-71,45 L-71,44 L-70,44 L-70,43 L-69,43 L-69,41 L-68,41 L-68,40 L-67,40 L-67,39 L-66,39 L-66,38 L-65,38 L-65,37 L-64,37 L-64,35 L-63,35 L-63,34 L-62,34 L-62,33 L-61,33 L-61,32 L-60,32 L-60,31 L-59,31 L-59,30 L-58,30 L-58,29 L-56,29 L-56,28 L-55,28 L-55,27 L-54,27 L-54,26 L-53,26 L-53,25 L-52,25 L-52,24 L-51,24 L-51,23 L-50,23 L-50,22 L-48,22 L-48,21 L-47,21 L-47,20 L-46,20 L-46,19 L-44,19 L-44,18 L-43,18 L-43,17 L-41,17 L-41,16 L-39,16 L-39,15 L-38,15 L-38,14 L-36,14 L-36,13 L-34,13 L-34,12 L-33,12 L-33,11 L-30,11 L-30,10 L-28,10 L-28,9 L-26,9 L-26,8 L-24,8 L-24,7 L-22,7 L-22,6 L-19,6 L-19,5 L-17,5 L-17,4 L-12,4 L-12,3 L-10,3 L-10,2 L-4,2 L-4,1 L0,1 Z " fill="#FCFEFE" transform="translate(91,23)"/>
<path d="M0,0 L37,0 L37,29 L67,29 L67,66 L37,66 L37,96 L0,96 L0,66 L-29,66 L-29,29 L0,29 Z " fill="#54C89B" transform="translate(89,28)"/>
<path d="M0,0 L11,0 L11,1 L17,1 L17,2 L20,2 L20,3 L23,3 L23,4 L25,4 L25,5 L27,5 L27,6 L28,6 L28,7 L30,7 L30,8 L31,8 L31,9 L33,9 L33,10 L34,10 L34,11 L35,11 L35,12 L36,12 L36,13 L37,13 L37,15 L38,15 L38,16 L39,16 L39,17 L40,17 L40,19 L41,19 L41,20 L42,20 L42,22 L43,22 L43,25 L44,25 L44,27 L45,27 L45,31 L46,31 L46,50 L45,50 L45,54 L44,54 L44,57 L43,57 L43,59 L42,59 L42,61 L41,61 L41,63 L40,63 L40,64 L39,64 L39,66 L38,66 L38,67 L37,67 L37,68 L36,68 L36,69 L35,69 L35,70 L34,70 L34,71 L33,71 L33,72 L32,72 L32,74 L33,74 L33,76 L34,76 L34,77 L35,77 L35,78 L36,78 L36,79 L37,79 L37,80 L38,80 L38,82 L39,82 L39,83 L40,83 L40,84 L41,84 L41,85 L42,85 L42,87 L43,87 L43,88 L44,88 L44,89 L45,89 L45,90 L46,90 L46,92 L47,92 L47,93 L48,93 L48,94 L24,94 L24,93 L23,93 L23,91 L22,91 L22,90 L21,90 L21,89 L20,89 L20,87 L19,87 L19,86 L18,86 L18,85 L17,85 L17,83 L16,83 L16,82 L15,82 L15,81 L-3,81 L-3,80 L-7,80 L-7,79 L-10,79 L-10,78 L-12,78 L-12,77 L-14,77 L-14,76 L-16,76 L-16,75 L-17,75 L-17,74 L-19,74 L-19,73 L-20,73 L-20,72 L-21,72 L-21,71 L-22,71 L-22,70 L-24,70 L-24,69 L-25,69 L-25,67 L-26,67 L-26,66 L-27,66 L-27,65 L-28,65 L-28,63 L-29,63 L-29,62 L-30,62 L-30,60 L-31,60 L-31,58 L-32,58 L-32,55 L-33,55 L-33,52 L-34,52 L-34,46 L-35,46 L-35,35 L-34,35 L-34,29 L-33,29 L-33,26 L-32,26 L-32,24 L-31,24 L-31,22 L-30,22 L-30,20 L-29,20 L-29,18 L-28,18 L-28,17 L-27,17 L-27,15 L-26,15 L-26,14 L-25,14 L-25,13 L-24,13 L-24,12 L-23,12 L-23,11 L-22,11 L-22,10 L-21,10 L-21,9 L-20,9 L-20,8 L-18,8 L-18,7 L-17,7 L-17,6 L-15,6 L-15,5 L-13,5 L-13,4 L-11,4 L-11,3 L-8,3 L-8,2 L-5,2 L-5,1 L0,1 Z M2,18 L2,19 L-2,19 L-2,20 L-4,20 L-4,21 L-6,21 L-6,22 L-7,22 L-7,23 L-8,23 L-8,24 L-9,24 L-9,25 L-10,25 L-10,26 L-11,26 L-11,28 L-12,28 L-12,30 L-13,30 L-13,33 L-14,33 L-14,38 L-15,38 L-15,44 L-14,44 L-14,49 L-13,49 L-13,52 L-12,52 L-12,54 L-11,54 L-11,55 L-10,55 L-10,56 L-9,56 L-9,57 L-8,57 L-8,58 L-7,58 L-7,59 L-6,59 L-6,60 L-5,60 L-5,61 L-3,61 L-3,62 L0,62 L0,63 L11,63 L11,62 L14,62 L14,61 L16,61 L16,60 L18,60 L18,59 L19,59 L19,58 L20,58 L20,57 L21,57 L21,56 L22,56 L22,55 L23,55 L23,53 L24,53 L24,51 L25,51 L25,48 L26,48 L26,33 L25,33 L25,31 L24,31 L24,28 L23,28 L23,27 L22,27 L22,25 L21,25 L21,24 L20,24 L20,23 L19,23 L19,22 L17,22 L17,21 L16,21 L16,20 L13,20 L13,19 L9,19 L9,18 Z " fill="#54C79B" transform="translate(281,83)"/>
<path d="M0,0 L7,0 L7,1 L9,1 L9,2 L10,2 L10,4 L11,4 L11,5 L12,5 L12,57 L11,57 L11,60 L10,60 L10,63 L9,63 L9,65 L8,65 L8,66 L7,66 L7,68 L6,68 L6,69 L5,69 L5,70 L4,70 L4,71 L3,71 L3,72 L2,72 L2,73 L1,73 L1,74 L0,74 L0,75 L-1,75 L-1,76 L-2,76 L-2,77 L-3,77 L-3,78 L-4,78 L-4,79 L-5,79 L-5,80 L-6,80 L-6,82 L-7,82 L-7,83 L-8,83 L-8,84 L-9,84 L-9,85 L-10,85 L-10,86 L-11,86 L-11,87 L-12,87 L-12,88 L-13,88 L-13,89 L-14,89 L-14,90 L-15,90 L-15,91 L-16,91 L-16,92 L-17,92 L-17,93 L-18,93 L-18,94 L-19,94 L-19,95 L-20,95 L-20,96 L-21,96 L-21,97 L-22,97 L-22,98 L-23,98 L-23,100 L-24,100 L-24,101 L-25,101 L-25,111 L-55,111 L-55,91 L-54,91 L-54,88 L-53,88 L-53,86 L-52,86 L-52,84 L-51,84 L-51,82 L-50,82 L-50,81 L-49,81 L-49,80 L-48,80 L-48,79 L-47,79 L-47,78 L-46,78 L-46,77 L-45,77 L-45,76 L-44,76 L-44,75 L-43,75 L-43,74 L-42,74 L-42,73 L-41,73 L-41,72 L-40,72 L-40,71 L-39,71 L-39,70 L-38,70 L-38,69 L-37,69 L-37,68 L-36,68 L-36,67 L-35,67 L-35,66 L-34,66 L-34,65 L-33,65 L-33,64 L-32,64 L-32,63 L-31,63 L-31,62 L-30,62 L-30,61 L-29,61 L-29,60 L-28,60 L-28,59 L-27,59 L-27,58 L-26,58 L-26,57 L-25,57 L-25,56 L-24,56 L-24,55 L-23,55 L-23,54 L-22,54 L-22,53 L-21,53 L-21,52 L-20,52 L-20,51 L-19,51 L-19,50 L-18,50 L-18,49 L-17,49 L-17,48 L-16,48 L-16,47 L-15,47 L-15,46 L-14,46 L-14,45 L-13,45 L-13,44 L-7,44 L-7,45 L-6,45 L-6,46 L-5,46 L-5,47 L-4,47 L-4,48 L-3,48 L-3,53 L-4,53 L-4,55 L-5,55 L-5,56 L-6,56 L-6,57 L-7,57 L-7,58 L-8,58 L-8,59 L-9,59 L-9,60 L-10,60 L-10,61 L-11,61 L-11,62 L-12,62 L-12,63 L-13,63 L-13,64 L-14,64 L-14,65 L-15,65 L-15,67 L-16,67 L-16,68 L-17,68 L-17,69 L-18,69 L-18,70 L-19,70 L-19,71 L-20,71 L-20,72 L-21,72 L-21,73 L-22,73 L-22,74 L-23,74 L-23,76 L-24,76 L-24,77 L-25,77 L-25,80 L-26,80 L-26,84 L-20,84 L-20,79 L-19,79 L-19,78 L-18,78 L-18,77 L-17,77 L-17,76 L-16,76 L-16,74 L-15,74 L-15,73 L-14,73 L-14,72 L-13,72 L-13,71 L-12,71 L-12,70 L-11,70 L-11,69 L-10,69 L-10,68 L-9,68 L-9,67 L-8,67 L-8,66 L-7,66 L-7,64 L-6,64 L-6,63 L-5,63 L-5,62 L-4,62 L-4,61 L-3,61 L-3,60 L-2,60 L-2,59 L-1,59 L-1,58 L0,58 L0,57 L1,57 L1,55 L2,55 L2,46 L1,46 L1,44 L0,44 L0,43 L-1,43 L-1,42 L-2,42 L-2,41 L-4,41 L-4,40 L-5,40 L-5,6 L-4,6 L-4,4 L-3,4 L-3,3 L-2,3 L-2,2 L-1,2 L-1,1 L0,1 Z " fill="#58C79C" transform="translate(175,105)"/>
<path d="M0,0 L6,0 L6,1 L8,1 L8,2 L9,2 L9,3 L10,3 L10,5 L11,5 L11,40 L10,40 L10,41 L9,41 L9,42 L8,42 L8,43 L7,43 L7,44 L6,44 L6,45 L5,45 L5,47 L4,47 L4,53 L5,53 L5,56 L6,56 L6,57 L7,57 L7,58 L8,58 L8,60 L9,60 L9,61 L10,61 L10,62 L11,62 L11,63 L12,63 L12,64 L13,64 L13,65 L14,65 L14,66 L15,66 L15,67 L16,67 L16,68 L17,68 L17,69 L18,69 L18,70 L19,70 L19,72 L20,72 L20,73 L21,73 L21,74 L22,74 L22,75 L23,75 L23,76 L24,76 L24,77 L25,77 L25,79 L26,79 L26,80 L27,80 L27,84 L32,84 L32,78 L31,78 L31,76 L30,76 L30,75 L29,75 L29,73 L28,73 L28,72 L27,72 L27,71 L26,71 L26,70 L25,70 L25,69 L24,69 L24,68 L23,68 L23,67 L22,67 L22,66 L21,66 L21,65 L20,65 L20,64 L19,64 L19,63 L18,63 L18,62 L17,62 L17,60 L16,60 L16,59 L15,59 L15,58 L14,58 L14,57 L13,57 L13,56 L12,56 L12,55 L11,55 L11,54 L10,54 L10,48 L11,48 L11,46 L13,46 L13,45 L14,45 L14,44 L19,44 L19,45 L20,45 L20,46 L21,46 L21,47 L22,47 L22,48 L23,48 L23,49 L24,49 L24,50 L25,50 L25,51 L26,51 L26,52 L27,52 L27,53 L28,53 L28,54 L29,54 L29,55 L30,55 L30,56 L31,56 L31,57 L32,57 L32,58 L33,58 L33,59 L34,59 L34,60 L35,60 L35,61 L36,61 L36,62 L37,62 L37,63 L38,63 L38,64 L39,64 L39,65 L40,65 L40,66 L41,66 L41,67 L42,67 L42,68 L43,68 L43,69 L44,69 L44,70 L45,70 L45,71 L46,71 L46,72 L47,72 L47,73 L48,73 L48,74 L49,74 L49,75 L50,75 L50,76 L51,76 L51,77 L52,77 L52,78 L53,78 L53,79 L54,79 L54,80 L55,80 L55,81 L56,81 L56,82 L57,82 L57,83 L58,83 L58,85 L59,85 L59,86 L60,86 L60,89 L61,89 L61,111 L31,111 L31,100 L30,100 L30,99 L29,99 L29,98 L28,98 L28,97 L27,97 L27,96 L26,96 L26,95 L25,95 L25,94 L24,94 L24,92 L23,92 L23,91 L22,91 L22,90 L21,90 L21,89 L20,89 L20,88 L19,88 L19,87 L18,87 L18,86 L17,86 L17,85 L16,85 L16,84 L15,84 L15,83 L14,83 L14,82 L13,82 L13,81 L12,81 L12,80 L11,80 L11,79 L10,79 L10,78 L9,78 L9,77 L8,77 L8,76 L7,76 L7,74 L6,74 L6,73 L5,73 L5,72 L4,72 L4,71 L3,71 L3,70 L2,70 L2,69 L1,69 L1,68 L0,68 L0,67 L-1,67 L-1,65 L-2,65 L-2,63 L-3,63 L-3,61 L-4,61 L-4,58 L-5,58 L-5,4 L-4,4 L-4,3 L-3,3 L-3,2 L-2,2 L-2,1 L0,1 Z " fill="#55C79B" transform="translate(34,105)"/>
<path d="M0,0 L18,0 L18,1 L19,1 L19,39 L20,39 L20,42 L21,42 L21,43 L22,43 L22,44 L23,44 L23,45 L24,45 L24,46 L25,46 L25,47 L36,47 L36,46 L38,46 L38,45 L39,45 L39,44 L40,44 L40,42 L41,42 L41,40 L42,40 L42,1 L43,1 L43,0 L59,0 L59,1 L62,1 L62,63 L59,63 L59,64 L46,64 L46,63 L42,63 L42,57 L41,57 L41,58 L40,58 L40,59 L38,59 L38,60 L37,60 L37,61 L35,61 L35,62 L33,62 L33,63 L30,63 L30,64 L17,64 L17,63 L14,63 L14,62 L12,62 L12,61 L10,61 L10,60 L9,60 L9,59 L7,59 L7,58 L6,58 L6,57 L5,57 L5,55 L4,55 L4,54 L3,54 L3,52 L2,52 L2,50 L1,50 L1,47 L0,47 L0,43 L-1,43 L-1,1 L0,1 Z " fill="#54C79B" transform="translate(338,100)"/>
<path d="M0,0 L11,0 L11,1 L15,1 L15,2 L17,2 L17,3 L19,3 L19,4 L20,4 L20,5 L22,5 L22,6 L23,6 L23,7 L25,7 L25,6 L26,6 L26,1 L42,1 L42,48 L43,48 L43,49 L42,49 L42,63 L41,63 L41,64 L26,64 L26,58 L25,58 L25,57 L24,57 L24,58 L23,58 L23,59 L21,59 L21,60 L20,60 L20,61 L18,61 L18,62 L16,62 L16,63 L13,63 L13,64 L9,64 L9,65 L2,65 L2,64 L-3,64 L-3,63 L-5,63 L-5,62 L-8,62 L-8,61 L-9,61 L-9,60 L-11,60 L-11,59 L-12,59 L-12,58 L-13,58 L-13,57 L-14,57 L-14,56 L-15,56 L-15,55 L-16,55 L-16,54 L-17,54 L-17,52 L-18,52 L-18,51 L-19,51 L-19,49 L-20,49 L-20,47 L-21,47 L-21,44 L-22,44 L-22,39 L-23,39 L-23,25 L-22,25 L-22,20 L-21,20 L-21,18 L-20,18 L-20,16 L-19,16 L-19,14 L-18,14 L-18,12 L-17,12 L-17,11 L-16,11 L-16,10 L-15,10 L-15,9 L-14,9 L-14,7 L-12,7 L-12,6 L-11,6 L-11,5 L-10,5 L-10,4 L-8,4 L-8,3 L-6,3 L-6,2 L-4,2 L-4,1 L0,1 Z M8,14 L8,15 L3,15 L3,16 L2,16 L2,17 L0,17 L0,18 L-1,18 L-1,19 L-2,19 L-2,20 L-3,20 L-3,21 L-4,21 L-4,23 L-5,23 L-5,26 L-6,26 L-6,30 L-7,30 L-7,35 L-6,35 L-6,39 L-5,39 L-5,41 L-4,41 L-4,43 L-3,43 L-3,44 L-2,44 L-2,45 L-1,45 L-1,47 L1,47 L1,48 L2,48 L2,49 L5,49 L5,50 L14,50 L14,49 L17,49 L17,48 L19,48 L19,47 L20,47 L20,46 L21,46 L21,45 L22,45 L22,44 L23,44 L23,42 L24,42 L24,39 L25,39 L25,36 L26,36 L26,29 L25,29 L25,25 L24,25 L24,23 L23,23 L23,21 L22,21 L22,20 L21,20 L21,19 L20,19 L20,18 L19,18 L19,17 L17,17 L17,16 L15,16 L15,15 L10,15 L10,14 Z M25,56 L25,57 L26,57 L26,56 Z " fill="#FDFDFD" transform="translate(541,99)"/>
<path d="M0,0 L15,0 L15,1 L16,1 L16,46 L17,46 L17,44 L18,44 L18,43 L19,43 L19,42 L20,42 L20,41 L21,41 L21,39 L22,39 L22,38 L23,38 L23,37 L24,37 L24,36 L25,36 L25,34 L26,34 L26,33 L27,33 L27,32 L28,32 L28,31 L29,31 L29,29 L30,29 L30,28 L31,28 L31,27 L32,27 L32,26 L33,26 L33,24 L34,24 L34,23 L35,23 L35,22 L36,22 L36,21 L56,21 L56,23 L55,23 L55,24 L54,24 L54,25 L53,25 L53,26 L52,26 L52,27 L51,27 L51,29 L50,29 L50,30 L49,30 L49,31 L48,31 L48,32 L47,32 L47,33 L46,33 L46,34 L45,34 L45,35 L44,35 L44,37 L43,37 L43,38 L42,38 L42,39 L41,39 L41,40 L40,40 L40,41 L39,41 L39,42 L38,42 L38,43 L37,43 L37,45 L36,45 L36,46 L35,46 L35,47 L34,47 L34,48 L33,48 L33,49 L32,49 L32,50 L31,50 L31,51 L30,51 L30,53 L31,53 L31,55 L32,55 L32,56 L33,56 L33,57 L34,57 L34,58 L35,58 L35,59 L36,59 L36,60 L37,60 L37,61 L38,61 L38,62 L39,62 L39,64 L40,64 L40,65 L41,65 L41,66 L42,66 L42,67 L43,67 L43,68 L44,68 L44,69 L45,69 L45,70 L46,70 L46,71 L47,71 L47,72 L48,72 L48,74 L49,74 L49,75 L50,75 L50,76 L51,76 L51,77 L52,77 L52,78 L53,78 L53,79 L54,79 L54,80 L55,80 L55,82 L56,82 L56,84 L36,84 L36,83 L35,83 L35,81 L34,81 L34,80 L33,80 L33,79 L32,79 L32,78 L31,78 L31,76 L30,76 L30,75 L29,75 L29,74 L28,74 L28,73 L27,73 L27,71 L26,71 L26,70 L25,70 L25,69 L24,69 L24,68 L23,68 L23,66 L22,66 L22,65 L21,65 L21,64 L20,64 L20,63 L19,63 L19,61 L18,61 L18,60 L17,60 L17,59 L16,59 L16,83 L15,83 L15,84 L0,84 L0,83 L-1,83 L-1,1 L0,1 Z " fill="#FCFCFC" transform="translate(457,79)"/>
<path d="M0,0 L13,0 L13,1 L17,1 L17,2 L20,2 L20,3 L22,3 L22,4 L24,4 L24,5 L25,5 L25,6 L27,6 L27,7 L28,7 L28,8 L29,8 L29,9 L30,9 L30,10 L31,10 L31,11 L32,11 L32,13 L33,13 L33,14 L34,14 L34,17 L35,17 L35,19 L36,19 L36,23 L37,23 L37,27 L38,27 L38,33 L37,33 L37,37 L-8,37 L-8,41 L-7,41 L-7,44 L-6,44 L-6,45 L-5,45 L-5,47 L-4,47 L-4,48 L-2,48 L-2,49 L0,49 L0,50 L2,50 L2,51 L11,51 L11,50 L13,50 L13,49 L15,49 L15,48 L16,48 L16,47 L17,47 L17,45 L18,45 L18,44 L36,44 L36,45 L35,45 L35,48 L34,48 L34,50 L33,50 L33,51 L32,51 L32,53 L31,53 L31,54 L30,54 L30,55 L29,55 L29,56 L28,56 L28,57 L27,57 L27,58 L26,58 L26,59 L24,59 L24,60 L23,60 L23,61 L21,61 L21,62 L19,62 L19,63 L16,63 L16,64 L10,64 L10,65 L3,65 L3,64 L-2,64 L-2,63 L-6,63 L-6,62 L-8,62 L-8,61 L-10,61 L-10,60 L-12,60 L-12,59 L-13,59 L-13,58 L-14,58 L-14,57 L-15,57 L-15,56 L-16,56 L-16,55 L-17,55 L-17,54 L-18,54 L-18,53 L-19,53 L-19,52 L-20,52 L-20,50 L-21,50 L-21,48 L-22,48 L-22,46 L-23,46 L-23,43 L-24,43 L-24,39 L-25,39 L-25,26 L-24,26 L-24,22 L-23,22 L-23,19 L-22,19 L-22,17 L-21,17 L-21,14 L-20,14 L-20,13 L-19,13 L-19,12 L-18,12 L-18,10 L-17,10 L-17,9 L-16,9 L-16,8 L-15,8 L-15,7 L-14,7 L-14,6 L-12,6 L-12,5 L-11,5 L-11,4 L-9,4 L-9,3 L-7,3 L-7,2 L-4,2 L-4,1 L0,1 Z M4,13 L4,14 L1,14 L1,15 L-2,15 L-2,16 L-3,16 L-3,17 L-4,17 L-4,18 L-5,18 L-5,19 L-6,19 L-6,21 L-7,21 L-7,23 L-8,23 L-8,26 L21,26 L21,25 L20,25 L20,21 L19,21 L19,19 L18,19 L18,18 L17,18 L17,17 L16,17 L16,16 L14,16 L14,15 L12,15 L12,14 L8,14 L8,13 Z " fill="#FDFDFE" transform="translate(664,99)"/>
<path d="M0,0 L4,0 L4,17 L-5,17 L-5,18 L-8,18 L-8,19 L-10,19 L-10,20 L-11,20 L-11,21 L-12,21 L-12,22 L-13,22 L-13,24 L-14,24 L-14,27 L-15,27 L-15,64 L-30,64 L-30,63 L-31,63 L-31,1 L-15,1 L-15,9 L-14,9 L-14,8 L-13,8 L-13,7 L-12,7 L-12,6 L-11,6 L-11,5 L-10,5 L-10,4 L-8,4 L-8,3 L-6,3 L-6,2 L-4,2 L-4,1 L0,1 Z " fill="#FDFDFE" transform="translate(629,99)"/>
<path d="M0,0 L1,0 L1,1 L2,1 L2,0 L18,0 L18,1 L19,1 L19,63 L17,63 L17,64 L3,64 L3,63 L-1,63 L-1,52 L-2,52 L-2,51 L-1,51 L-1,1 L0,1 Z " fill="#56C49B" transform="translate(414,100)"/>
<path d="M0,0 L37,0 L37,29 L67,29 L67,66 L37,66 L37,96 L0,96 L0,66 L3,66 L3,68 L2,68 L2,94 L36,94 L36,68 L35,68 L35,64 L36,64 L36,63 L38,63 L38,64 L39,64 L39,65 L65,65 L65,31 L38,31 L38,32 L37,32 L37,31 L36,31 L36,1 L1,1 L1,29 L0,29 Z " fill="#81CFB1" transform="translate(89,28)"/>
<path d="M0,0 L7,0 L7,1 L9,1 L9,2 L11,2 L11,3 L12,3 L12,4 L13,4 L13,5 L14,5 L14,8 L15,8 L15,14 L14,14 L14,16 L13,16 L13,18 L12,18 L12,19 L10,19 L10,20 L8,20 L8,21 L5,21 L5,22 L2,22 L2,21 L-2,21 L-2,20 L-4,20 L-4,19 L-5,19 L-5,18 L-6,18 L-6,17 L-7,17 L-7,16 L-8,16 L-8,13 L-9,13 L-9,9 L-8,9 L-8,6 L-7,6 L-7,4 L-6,4 L-6,3 L-5,3 L-5,2 L-3,2 L-3,1 L0,1 Z " fill="#55C69B" transform="translate(420,73)"/>
<path d="M0,0 L2,0 L2,1 L3,1 L3,2 L4,2 L4,3 L5,3 L5,5 L6,5 L6,14 L5,14 L5,16 L4,16 L4,17 L3,17 L3,18 L2,18 L2,19 L1,19 L1,20 L0,20 L0,21 L-1,21 L-1,22 L-2,22 L-2,23 L-3,23 L-3,25 L-4,25 L-4,26 L-5,26 L-5,27 L-6,27 L-6,28 L-7,28 L-7,29 L-8,29 L-8,30 L-9,30 L-9,31 L-10,31 L-10,32 L-11,32 L-11,33 L-12,33 L-12,35 L-13,35 L-13,36 L-14,36 L-14,37 L-15,37 L-15,38 L-16,38 L-16,43 L-22,43 L-22,39 L-21,39 L-21,36 L-20,36 L-20,35 L-19,35 L-19,33 L-18,33 L-18,32 L-17,32 L-17,31 L-16,31 L-16,30 L-15,30 L-15,29 L-14,29 L-14,28 L-13,28 L-13,27 L-12,27 L-12,26 L-11,26 L-11,24 L-10,24 L-10,23 L-9,23 L-9,22 L-8,22 L-8,21 L-7,21 L-7,20 L-6,20 L-6,19 L-5,19 L-5,18 L-4,18 L-4,17 L-3,17 L-3,16 L-2,16 L-2,15 L-1,15 L-1,14 L0,14 L0,12 L1,12 L1,7 L0,7 L0,6 L-1,6 L-1,5 L-2,5 L-2,4 L-3,4 L-3,3 L-1,3 L-1,2 L0,2 Z " fill="#EDFDF8" transform="translate(171,146)"/>
<path d="M0,0 L2,0 L2,2 L1,2 L1,8 L2,8 L2,9 L3,9 L3,10 L4,10 L4,11 L5,11 L5,12 L6,12 L6,13 L7,13 L7,14 L8,14 L8,16 L9,16 L9,17 L10,17 L10,18 L11,18 L11,19 L12,19 L12,20 L13,20 L13,21 L14,21 L14,22 L15,22 L15,23 L16,23 L16,24 L17,24 L17,25 L18,25 L18,26 L19,26 L19,27 L20,27 L20,29 L21,29 L21,30 L22,30 L22,32 L23,32 L23,38 L18,38 L18,34 L17,34 L17,33 L16,33 L16,31 L15,31 L15,30 L14,30 L14,29 L13,29 L13,28 L12,28 L12,27 L11,27 L11,26 L10,26 L10,24 L9,24 L9,23 L8,23 L8,22 L7,22 L7,21 L6,21 L6,20 L5,20 L5,19 L4,19 L4,18 L3,18 L3,17 L2,17 L2,16 L1,16 L1,15 L0,15 L0,14 L-1,14 L-1,12 L1,12 L1,9 L0,9 Z " fill="#EBFCF7" transform="translate(43,151)"/>
<path d="M0,0 L17,0 L17,2 L16,2 L16,1 L1,1 L1,2 L0,2 L0,3 L1,3 L1,46 L2,46 L2,47 L3,47 L3,48 L5,48 L5,50 L6,50 L6,51 L5,51 L5,55 L4,55 L4,54 L3,54 L3,52 L2,52 L2,50 L1,50 L1,47 L0,47 L0,43 L-1,43 L-1,1 L0,1 Z " fill="#64BD9D" transform="translate(338,100)"/>
<path d="M0,0 L6,0 L6,1 L8,1 L8,2 L9,2 L9,3 L10,3 L10,5 L11,5 L11,40 L10,40 L10,41 L9,41 L9,5 L8,5 L8,4 L5,4 L5,2 L-1,2 L-1,3 L-3,3 L-3,2 L-2,2 L-2,1 L0,1 Z " fill="#63C19C" transform="translate(34,105)"/>
<path d="M0,0 L1,0 L1,1 L2,1 L2,2 L3,2 L3,3 L4,3 L4,5 L5,5 L5,6 L6,6 L6,9 L7,9 L7,31 L-23,31 L-23,23 L-22,23 L-22,30 L5,30 L5,8 L4,8 L4,7 L3,7 L3,4 L2,4 L2,3 L1,3 L1,2 L0,2 Z " fill="#74C7A6" transform="translate(88,185)"/>
<path d="M0,0 L1,0 L1,1 L3,1 L3,2 L2,2 L2,4 L3,4 L3,6 L4,6 L4,42 L3,42 L3,43 L2,43 L2,44 L1,44 L1,43 L-1,43 L-1,42 L0,42 L0,41 L1,41 L1,40 L2,40 L2,5 L1,5 L1,3 L0,3 L0,2 L-1,2 L-1,1 L0,1 Z " fill="#E2FEF5" transform="translate(43,105)"/>
<path d="M0,0 L1,0 L1,2 L0,2 L0,3 L-1,3 L-1,37 L0,37 L0,38 L1,38 L1,40 L0,40 L0,39 L-2,39 L-2,38 L-3,38 L-3,4 L-2,4 L-2,2 L-1,2 L-1,1 L0,1 Z " fill="#80D1B1" transform="translate(173,107)"/>
<path d="M0,0 L1,0 L1,38 L2,38 L2,41 L3,41 L3,42 L4,42 L4,44 L3,44 L3,43 L2,43 L2,42 L1,42 L1,41 L0,41 L0,40 L-1,40 L-1,37 L-2,37 L-2,36 L0,36 L0,25 L-1,25 L-1,7 L0,7 Z " fill="#67BB9D" transform="translate(356,101)"/>
<path d="M0,0 L1,0 L1,4 L0,4 L0,8 L-1,8 L-1,9 L-2,9 L-2,10 L-4,10 L-4,11 L-5,11 L-5,12 L-6,12 L-6,13 L-7,13 L-7,14 L-9,14 L-9,15 L-13,15 L-13,16 L-19,16 L-19,17 L-20,17 L-20,16 L-27,16 L-27,15 L-29,15 L-29,14 L-31,14 L-31,13 L-32,13 L-32,12 L-33,12 L-33,11 L-34,11 L-34,9 L-33,9 L-33,10 L-32,10 L-32,11 L-31,11 L-31,12 L-30,12 L-30,13 L-28,13 L-28,14 L-25,14 L-25,15 L-14,15 L-14,14 L-11,14 L-11,13 L-9,13 L-9,12 L-7,12 L-7,11 L-6,11 L-6,10 L-5,10 L-5,9 L-4,9 L-4,8 L-3,8 L-3,7 L-2,7 L-2,5 L-1,5 L-1,3 L0,3 Z " fill="#67BC9D" transform="translate(306,131)"/>
<path d="M0,0 L16,0 L16,1 L2,1 L2,2 L1,2 L1,3 L0,3 L0,42 L-2,42 L-2,40 L-1,40 L-1,1 L0,1 Z " fill="#69BEA1" transform="translate(381,100)"/>
<path d="M0,0 L1,0 L1,23 L2,23 L2,26 L3,26 L3,27 L30,27 L30,28 L0,28 Z " fill="#DAF8EE" transform="translate(126,29)"/>
<path d="M0,0 L1,0 L1,6 L0,6 L0,8 L-1,8 L-1,10 L-2,10 L-2,11 L-4,11 L-4,12 L-6,12 L-6,13 L-9,13 L-9,14 L-12,14 L-12,13 L-16,13 L-16,12 L-18,12 L-18,11 L-19,11 L-19,10 L-20,10 L-20,9 L-21,9 L-21,8 L-19,8 L-19,9 L-18,9 L-18,10 L-16,10 L-16,11 L-15,11 L-15,12 L-7,12 L-7,11 L-8,11 L-8,10 L-7,10 L-7,9 L-8,9 L-8,7 L-7,7 L-7,8 L-6,8 L-6,7 L-4,7 L-4,8 L-3,8 L-3,9 L-2,9 L-2,6 L-1,6 L-1,5 L0,5 Z " fill="#64BE9E" transform="translate(434,81)"/>
<path d="M0,0 L2,0 L2,1 L3,1 L3,2 L4,2 L4,4 L5,4 L5,5 L6,5 L6,6 L-18,6 L-18,5 L-19,5 L-19,4 L-17,4 L-17,5 L3,5 L3,4 L-1,4 L-1,3 L-2,3 L-2,2 L-1,2 L-1,1 L0,1 Z " fill="#6ABFA1" transform="translate(323,171)"/>
<path d="M0,0 L1,0 L1,1 L4,1 L4,2 L3,2 L3,3 L2,3 L2,4 L1,4 L1,5 L0,5 L0,6 L-1,6 L-1,7 L-2,7 L-2,8 L-3,8 L-3,9 L-4,9 L-4,11 L-5,11 L-5,12 L-6,12 L-6,15 L-7,15 L-7,9 L-5,9 L-5,8 L-4,8 L-4,6 L-6,6 L-6,5 L-5,5 L-5,4 L-3,4 L-3,3 L-2,3 L-2,2 L0,2 Z " fill="#67C5A1" transform="translate(156,170)"/>
<path d="M0,0 L1,0 L1,1 L2,1 L2,3 L3,3 L3,4 L4,4 L4,8 L9,8 L9,2 L8,2 L8,1 L10,1 L10,9 L11,9 L11,11 L10,11 L10,10 L5,10 L5,11 L3,11 L3,8 L2,8 L2,7 L1,7 L1,2 L0,2 Z " fill="#6EC8A6" transform="translate(57,181)"/>
<path d="M0,0 L5,0 L5,1 L1,1 L1,2 L-2,2 L-2,3 L-4,3 L-4,5 L-8,5 L-8,6 L-10,6 L-10,7 L-12,7 L-12,8 L-13,8 L-13,9 L-15,9 L-15,10 L-16,10 L-16,11 L-17,11 L-17,12 L-19,12 L-19,11 L-18,11 L-18,10 L-17,10 L-17,9 L-16,9 L-16,8 L-15,8 L-15,7 L-13,7 L-13,6 L-12,6 L-12,5 L-10,5 L-10,4 L-8,4 L-8,3 L-6,3 L-6,2 L-3,2 L-3,1 L0,1 Z " fill="#67BD9F" transform="translate(276,84)"/>
<path d="M0,0 L10,0 L10,1 L16,1 L16,2 L19,2 L19,3 L22,3 L22,4 L16,4 L16,3 L15,3 L15,2 L8,2 L8,3 L4,3 L4,2 L0,2 Z " fill="#66C2A2" transform="translate(282,83)"/>
<path d="M0,0 L2,0 L2,1 L4,1 L4,2 L5,2 L5,3 L7,3 L7,4 L8,4 L8,5 L10,5 L10,6 L11,6 L11,7 L12,7 L12,8 L13,8 L13,9 L14,9 L14,11 L15,11 L15,12 L14,12 L14,13 L13,13 L13,10 L12,10 L12,9 L10,9 L10,7 L8,7 L8,6 L6,6 L6,7 L3,7 L3,6 L5,6 L5,5 L3,5 L3,4 L4,4 L4,3 L3,3 L3,2 L1,2 L1,1 L0,1 Z " fill="#66C4A2" transform="translate(304,87)"/>
<path d="M0,0 L1,0 L1,3 L0,3 L0,4 L-1,4 L-1,5 L-2,5 L-2,6 L-3,6 L-3,7 L-4,7 L-4,8 L-5,8 L-5,9 L-6,9 L-6,10 L-7,10 L-7,11 L-8,11 L-8,13 L-9,13 L-9,14 L-10,14 L-10,15 L-11,15 L-11,16 L-14,16 L-14,15 L-13,15 L-13,14 L-12,14 L-12,13 L-11,13 L-11,12 L-10,12 L-10,11 L-9,11 L-9,10 L-8,10 L-8,9 L-7,9 L-7,8 L-6,8 L-6,7 L-5,7 L-5,6 L-4,6 L-4,5 L-3,5 L-3,4 L-2,4 L-2,3 L-1,3 L-1,1 L0,1 Z " fill="#E4FCF5" transform="translate(170,184)"/>
<path d="M0,0 L3,0 L3,1 L4,1 L4,2 L2,2 L2,3 L1,3 L1,4 L0,4 L0,5 L-1,5 L-1,6 L-2,6 L-2,7 L-3,7 L-3,8 L-7,8 L-7,7 L-6,7 L-6,6 L-5,6 L-5,5 L-4,5 L-4,4 L-3,4 L-3,3 L-2,3 L-2,2 L-1,2 L-1,1 L0,1 Z " fill="#6AC7A4" transform="translate(138,173)"/>
<path d="M0,0 L2,0 L2,2 L1,2 L1,8 L2,8 L2,9 L3,9 L3,10 L4,10 L4,11 L5,11 L5,12 L6,12 L6,13 L1,13 L1,15 L0,15 L0,14 L-1,14 L-1,12 L1,12 L1,9 L0,9 Z " fill="#DEFAF3" transform="translate(43,151)"/>
<path d="M0,0 L1,0 L1,5 L0,5 L0,6 L-1,6 L-1,8 L-2,8 L-2,14 L-3,14 L-3,24 L-4,24 L-4,13 L-3,13 L-3,7 L-2,7 L-2,4 L-1,4 L-1,2 L0,2 Z " fill="#67BB9D" transform="translate(250,105)"/>
<path d="M0,0 L20,0 L20,1 L21,1 L21,4 L22,4 L22,6 L21,6 L21,5 L20,5 L20,3 L19,3 L19,2 L18,2 L18,1 L0,1 Z " fill="#66BFA1" transform="translate(278,163)"/>
<path d="M0,0 L6,0 L6,1 L8,1 L8,2 L9,2 L9,3 L10,3 L10,5 L8,5 L8,4 L5,4 L5,2 L-1,2 L-1,3 L-3,3 L-3,2 L-2,2 L-2,1 L0,1 Z " fill="#6DC3A4" transform="translate(34,105)"/>
<path d="M0,0 L2,0 L2,1 L4,1 L4,2 L5,2 L5,12 L10,12 L10,13 L4,13 L4,6 L3,6 L3,3 L2,3 L2,2 L1,2 L1,1 L0,1 Z " fill="#65C29E" transform="translate(62,202)"/>
<path d="M0,0 L1,0 L1,3 L0,3 L0,4 L-2,4 L-2,7 L-4,7 L-4,16 L-5,16 L-5,6 L-4,6 L-4,5 L-3,5 L-3,3 L-2,3 L-2,2 L-1,2 L-1,1 L0,1 Z " fill="#CFF4E6" transform="translate(155,200)"/>
<path d="M0,0 L2,0 L2,1 L0,1 Z M-3,1 L0,1 L0,2 L2,2 L2,3 L3,3 L3,6 L4,6 L4,7 L2,7 L2,6 L1,6 L1,5 L-1,5 L-1,4 L-2,4 L-2,3 L-3,3 Z " fill="#63C19F" transform="translate(346,154)"/>
<path d="M0,0 L2,0 L2,2 L1,2 L1,3 L0,3 L0,4 L-1,4 L-1,5 L-2,5 L-2,6 L-3,6 L-3,7 L-4,7 L-4,8 L-5,8 L-5,10 L-4,10 L-4,12 L-5,12 L-5,11 L-6,11 L-6,7 L-5,7 L-5,6 L-4,6 L-4,4 L-2,4 L-2,3 L-1,3 L-1,1 L0,1 Z " fill="#67BD9F" transform="translate(318,147)"/>
<path d="M0,0 L3,0 L3,1 L4,1 L4,0 L5,0 L5,2 L6,2 L6,3 L8,3 L8,4 L6,4 L6,5 L7,5 L7,7 L6,7 L6,6 L5,6 L5,5 L4,5 L4,4 L3,4 L3,3 L2,3 L2,2 L1,2 L1,1 L0,1 Z " fill="#66C4A1" transform="translate(54,169)"/>
<path d="M0,0 L1,0 L1,2 L0,2 L0,4 L-1,4 L-1,5 L-2,5 L-2,6 L-3,6 L-3,7 L-5,7 L-5,9 L-7,9 L-7,8 L-6,8 L-6,6 L-5,6 L-5,5 L-4,5 L-4,4 L-3,4 L-3,3 L-2,3 L-2,2 L-1,2 L-1,1 L0,1 Z " fill="#7CCAAB" transform="translate(130,181)"/>
<path d="M0,0 L1,0 L1,1 L2,1 L2,3 L3,3 L3,4 L4,4 L4,6 L5,6 L5,9 L4,9 L4,8 L3,8 L3,7 L1,7 L1,6 L2,6 L2,5 L1,5 L1,4 L0,4 Z " fill="#62C2A2" transform="translate(319,99)"/>
<path d="M0,0 L1,0 L1,1 L2,1 L2,2 L3,2 L3,3 L4,3 L4,5 L5,5 L5,6 L6,6 L6,7 L5,7 L5,8 L4,8 L4,7 L3,7 L3,6 L2,6 L2,4 L1,4 L1,3 L0,3 L0,2 L-1,2 L-1,1 L0,1 Z " fill="#67C7A3" transform="translate(49,161)"/>
<path d="M0,0 L2,0 L2,1 L3,1 L3,2 L4,2 L4,3 L5,3 L5,4 L3,4 L3,3 L2,3 L2,4 L1,4 L1,3 L0,3 L0,6 L-1,6 L-1,5 L-2,5 L-2,4 L-3,4 L-3,3 L-1,3 L-1,2 L0,2 Z " fill="#E3FCF3" transform="translate(171,146)"/>
<path d="M0,0 L10,0 L10,1 L7,1 L7,2 L6,2 L6,3 L4,3 L4,2 L0,2 Z " fill="#68B99C" transform="translate(282,83)"/>
<path d="M0,0 L6,0 L6,1 L7,1 L7,2 L2,2 L2,3 L-2,3 L-2,2 L-1,2 L-1,1 L0,1 Z " fill="#83CBAF" transform="translate(162,149)"/>
<path d="M0,0 L1,0 L1,2 L2,2 L2,3 L1,3 L1,4 L0,4 L0,5 L-2,5 L-2,10 L-3,10 L-3,4 L-2,4 L-2,2 L-1,2 L-1,1 L0,1 Z " fill="#E0F9F2" transform="translate(41,148)"/>
<path d="M0,0 L1,0 L1,1 L0,1 Z " fill="#000000" transform="translate(388,341)"/>
<path d="M0,0 L1,0 L1,1 L0,1 Z " fill="#000000" transform="translate(589,334)"/>
<path d="M0,0 L1,0 L1,1 L0,1 Z " fill="#000000" transform="translate(56,320)"/>
<path d="M0,0 L1,0 L1,1 L0,1 Z " fill="#000000" transform="translate(657,318)"/>
<path d="M0,0 L1,0 L1,1 L0,1 Z " fill="#000000" transform="translate(154,303)"/>
<path d="M0,0 L1,0 L1,1 L0,1 Z " fill="#000000" transform="translate(688,292)"/>
<path d="M0,0 L1,0 L1,1 L0,1 Z " fill="#000000" transform="translate(260,292)"/>
<path d="M0,0 L1,0 L1,1 L0,1 Z " fill="#000000" transform="translate(474,291)"/>
<path d="M0,0 L1,0 L1,1 L0,1 Z " fill="#000000" transform="translate(22,291)"/>
<path d="M0,0 L1,0 L1,1 L0,1 Z " fill="#000000" transform="translate(107,283)"/>
<path d="M0,0 L1,0 L1,1 L0,1 Z " fill="#000000" transform="translate(396,282)"/>
<path d="M0,0 L1,0 L1,1 L0,1 Z " fill="#000000" transform="translate(157,268)"/>
<path d="M0,0 L1,0 L1,1 L0,1 Z " fill="#000000" transform="translate(141,267)"/>
<path d="M0,0 L1,0 L1,1 L0,1 Z " fill="#000000" transform="translate(240,264)"/>
<path d="M0,0 L1,0 L1,1 L0,1 Z " fill="#000000" transform="translate(241,261)"/>
<path d="M0,0 L1,0 L1,1 L0,1 Z " fill="#000000" transform="translate(327,250)"/>
<path d="M0,0 L1,0 L1,1 L0,1 Z " fill="#000000" transform="translate(211,247)"/>
<path d="M0,0 L1,0 L1,1 L0,1 Z " fill="#000000" transform="translate(654,234)"/>
<path d="M0,0 L1,0 L1,1 L0,1 Z " fill="#000000" transform="translate(185,233)"/>
<path d="M0,0 L1,0 L1,1 L0,1 Z " fill="#000000" transform="translate(241,230)"/>
<path d="M0,0 L1,0 L1,1 L0,1 Z " fill="#000000" transform="translate(537,217)"/>
<path d="M0,0 L1,0 L1,1 L0,1 Z " fill="#000000" transform="translate(300,211)"/>
<path d="M0,0 L1,0 L1,1 L0,1 Z " fill="#000000" transform="translate(432,201)"/>
<path d="M0,0 L1,0 L1,1 L0,1 Z " fill="#000000" transform="translate(258,194)"/>
<path d="M0,0 L1,0 L1,1 L0,1 Z " fill="#000000" transform="translate(227,189)"/>
<path d="M0,0 L1,0 L1,1 L0,1 Z " fill="#000000" transform="translate(378,179)"/>
<path d="M0,0 L1,0 L1,1 L0,1 Z " fill="#000000" transform="translate(366,171)"/>
<path d="M0,0 L1,0 L1,1 L0,1 Z " fill="#000000" transform="translate(482,169)"/>
<path d="M0,0 L1,0 L1,1 L0,1 Z " fill="#000000" transform="translate(683,164)"/>
<path d="M0,0 L1,0 L1,1 L0,1 Z " fill="#000000" transform="translate(230,145)"/>
<path d="M0,0 L1,0 L1,1 L0,1 Z " fill="#000000" transform="translate(560,93)"/>
<path d="M0,0 L1,0 L1,1 L0,1 Z " fill="#000000" transform="translate(476,76)"/>
<path d="M0,0 L1,0 L1,1 L0,1 Z " fill="#000000" transform="translate(475,71)"/>
<path d="M0,0 L1,0 L1,1 L0,1 Z " fill="#000000" transform="translate(402,67)"/>
<path d="M0,0 L1,0 L1,1 L0,1 Z " fill="#000000" transform="translate(301,46)"/>
<path d="M0,0 L1,0 L1,1 L0,1 Z " fill="#000000" transform="translate(587,45)"/>
<path d="M0,0 L1,0 L1,1 L0,1 Z " fill="#000000" transform="translate(687,44)"/>
<path d="M0,0 L1,0 L1,1 L0,1 Z " fill="#000000" transform="translate(624,44)"/>
<path d="M0,0 L1,0 L1,1 L0,1 Z " fill="#000000" transform="translate(509,38)"/>
<path d="M0,0 L1,0 L1,1 L0,1 Z " fill="#000000" transform="translate(326,32)"/>
<path d="M0,0 L1,0 L1,1 L0,1 Z " fill="#000000" transform="translate(75,23)"/>
<path d="M0,0 L1,0 L1,1 L0,1 Z " fill="#000000" transform="translate(49,6)"/>
<path d="M0,0 L1,0 L1,1 L0,1 Z " fill="#000000" transform="translate(540,4)"/>
</svg>
